<?xml version="1.0" encoding="UTF-8" standalone="no"?>
<svg width="209px" height="50px" viewBox="0 0 209 50" version="1.1" xmlns="http://www.w3.org/2000/svg" xmlns:xlink="http://www.w3.org/1999/xlink">
    <!-- Generator: Sketch 43.2 (39069) - http://www.bohemiancoding.com/sketch -->
    <title>horizontal</title>
    <desc>Created with Sketch.</desc>
    <defs></defs>
    <g id="Horizontal" stroke="none" stroke-width="1" fill="none" fill-rule="evenodd">
        <g id="horizontal">
            <g id="mark">
                <path d="M53.8951149,33.7569841 C53.8951149,34.9553968 53.2248508,36.3133333 52.4035189,36.7784127 L28.2756026,49.1474603 C27.456656,49.6101587 26.1129475,49.6101587 25.2940009,49.1450794 L1.48968773,36.78 C0.670741126,36.3157143 -0.000318037518,34.9553968 -0.000318037518,33.7569841 L-0.000318037518,15.7371429 C-0.000318037518,14.5387302 0.670741126,13.1784127 1.48968773,12.7133333 L25.2940009,0.349047619 C26.1129475,-0.116031746 27.456656,-0.116031746 28.2756026,0.346666667 L52.4035189,12.7157143 C53.2248508,13.1807937 53.8951149,14.5387302 53.8951149,15.7371429 L53.8951149,33.7569841 Z" id="Fill-1" fill="#F26641"></path>
                <path d="M19.9476312,25.0160317 C19.9476312,21.7493651 22.387774,19.1001587 25.397204,19.1001587 C28.4066341,19.1001587 30.8451867,21.7493651 30.8451867,25.0160317 C30.8451867,28.2826984 28.4066341,30.9295238 25.397204,30.9295238 C22.387774,30.9295238 19.9476312,28.2826984 19.9476312,25.0160317 L19.9476312,25.0160317 Z M40.5294291,30.2946032 C40.2296788,30.3739683 39.9323137,30.4580952 39.6150713,30.4580952 C38.9726355,30.4580952 38.3691593,30.2819048 37.9334479,29.9247619 C37.5088678,29.567619 37.2949876,29.07 37.2949876,28.4271429 L37.2949876,14.2025397 L31.0431651,14.2025397 L31.0431651,16.688254 C30.1788981,15.6684127 29.1762848,14.9469841 28.0512271,14.4763492 C26.9213988,14.0088889 25.498976,13.772381 24.1815056,13.772381 C22.5968837,13.772381 21.1720756,14.0755556 19.8919746,14.6763492 C18.6134638,15.2747619 17.5241853,16.0834921 16.6122127,17.0969841 C15.716142,18.1152381 15.0172545,19.2961905 14.5258866,20.6477778 C14.0408794,22.0033333 13.7967856,23.4303175 13.7967856,24.9366667 C13.7967856,26.4771429 14.0408794,27.9255556 14.5258866,29.2771429 C15.0172545,30.6279365 15.716142,31.8120635 16.6122127,32.8271429 C17.5241853,33.8390476 18.6134638,34.6501587 19.8919746,35.2525397 C21.1720756,35.8533333 22.5968837,36.151746 24.1815056,36.151746 C25.7255778,36.151746 27.117787,35.8461905 28.363699,35.2247619 C29.60166,34.6001587 30.6360771,33.6342857 31.4637697,32.3192063 C31.991712,33.4446032 32.7359198,34.3660317 33.6908274,35.0826984 C34.6544811,35.7969841 35.7564811,36.151746 37.0000078,36.151746 C37.8602993,36.151746 38.8088462,36.0485714 39.6731131,35.8461905 C39.9919457,35.7668254 40.2336543,35.554127 40.5294291,35.4374603 L40.5294291,30.2946032 Z" id="Fill-4" fill="#FFFFFF"></path>
            </g>
            <path d="M77.166936,30.3745763 C77.9923232,29.816 78.4523906,29.1065085 78.5476094,28.2465763 L78.5476094,26.8138305 L74.3485522,26.8138305 C73.2384512,26.8138305 72.426734,26.9737627 71.9143434,27.2936271 C71.4019529,27.6139661 71.1459933,28.1464407 71.1459933,28.8915254 C71.1459933,29.5986441 71.4137374,30.1624407 71.9501684,30.5824407 C72.4861279,31.0029153 73.2191246,31.2131525 74.1491582,31.2131525 C75.3351515,31.2131525 76.3415488,30.9336271 77.166936,30.3745763 Z M78.5763636,31.8291525 C77.4657912,33.1954576 75.7579798,33.8788475 73.4519865,33.8788475 C72.3602694,33.8788475 71.4019529,33.6686102 70.5765657,33.2481356 C69.7507071,32.8281356 69.1148148,32.252 68.6688889,31.5211525 C68.222963,30.7903051 68,29.9616949 68,29.0348475 C68,27.6016271 68.5147475,26.4673898 69.5447138,25.6311864 C70.5737374,24.7954576 72.0142761,24.3678644 73.8644444,24.3488814 L78.5476094,24.3488814 L78.5476094,23.8757288 C78.5476094,22.8824407 78.2317845,22.1107797 77.6010774,21.5612203 C76.969899,21.0121356 76.0516498,20.7373559 74.8468013,20.7373559 C73.3473401,20.7373559 71.8243098,21.2631864 70.2777104,22.3138983 L68.897037,19.963322 C70.0830303,19.256678 71.1483502,18.752678 72.0925253,18.451322 C73.036229,18.1504407 74.1967677,18 75.5727273,18 C77.5558249,18 79.0929966,18.4850169 80.1847138,19.4545763 C81.2759596,20.4246102 81.8307744,21.7690847 81.850101,23.4889492 L81.8783838,33.7355254 L78.5763636,33.7355254 L78.5763636,31.8291525 L78.5763636,31.8291525 Z" id="Fill-5" fill="#364447"></path>
            <path d="M100.576027,33.620678 L97.2311111,33.620678 L97.2311111,30.5682034 C96.2251852,32.6416271 94.3792593,33.6966102 91.6938047,33.7350508 C89.9289562,33.7350508 88.5383838,33.1978305 87.5235017,32.1229153 C86.5076768,31.048 86,29.5791864 86,27.716 L86,18 L89.3595286,18 L89.3595286,26.7848814 C89.3595286,27.9599322 89.679596,28.8844068 90.320202,29.5578305 C90.9608081,30.2312542 91.8455892,30.5682034 92.9750168,30.5682034 C94.2750842,30.5492203 95.3092929,30.0831864 96.0781145,29.1710508 C96.846936,28.2584407 97.2311111,27.1 97.2311111,25.6957288 L97.2311111,18 L100.576027,18 L100.576027,33.620678" id="Fill-6" fill="#364447"></path>
            <path d="M110.533333,33.4614237 C109.271448,33.4614237 108.232054,33.0793898 107.416094,32.3148475 C106.600135,31.5507797 106.191919,30.4184407 106.191919,28.9183051 L106.191919,20.8215593 L104,20.8215593 L104,18.2849492 L106.191919,18.2849492 L106.191919,14 L109.522694,14 L109.522694,18.2849492 L114.092256,18.2849492 L114.092256,20.8215593 L109.522694,20.8215593 L109.522694,28.3023051 C109.522694,29.0858305 109.65798,29.6325424 109.928552,29.9429153 C110.199125,30.2537627 110.613939,30.4089492 111.173939,30.4089492 C111.800404,30.4089492 112.578182,30.1844746 113.508687,29.7350508 L114.362357,32.3148475 C113.071717,33.0793898 111.79569,33.4614237 110.533333,33.4614237" id="Fill-7" fill="#364447"></path>
            <path d="M130.344781,19.6525424 C131.364848,20.7227119 131.874882,22.1943729 131.874882,24.0665763 L131.874882,33.7830508 L128.515354,33.7830508 L128.515354,25.0124068 C128.515354,23.8373559 128.185387,22.9105085 127.526397,22.232339 C126.866465,21.5541695 125.953401,21.2148475 124.786263,21.2148475 C123.429158,21.2338305 122.352054,21.6998644 121.554949,22.612 C120.757845,23.5246102 120.359057,24.6825763 120.359057,26.087322 L120.359057,33.7830508 L117,33.7830508 L117,12 L120.359057,12 L120.359057,21.2148475 C121.431448,19.1034576 123.343838,18.0475254 126.095758,18.0475254 C127.908215,18.0475254 129.324242,18.5828475 130.344781,19.6525424" id="Fill-8" fill="#364447"></path>
            <path d="M145.931785,21.7904407 C145.153535,21.0695593 144.133468,20.7084068 142.871582,20.7084068 C141.647407,20.7084068 140.632054,21.0695593 139.825522,21.7904407 C139.018519,22.5117966 138.515556,23.4984407 138.316633,24.7498983 L147.184714,24.7498983 C147.127677,23.4984407 146.710034,22.5117966 145.931785,21.7904407 Z M148.337239,20.0852881 C149.551987,21.475322 150.159596,23.4315254 150.159596,25.9538983 C150.159596,26.2115932 150.140269,26.6320678 150.102559,27.2148475 L138.37367,27.2148475 C138.648485,28.428339 139.213199,29.383661 140.06734,30.0808136 C140.921481,30.7784407 141.960404,31.1272542 143.184579,31.1272542 C144.019394,31.1272542 144.81697,30.9696949 145.575892,30.6541017 C146.334815,30.3389831 146.994747,29.8900339 147.554747,29.3072542 L149.333737,31.2131525 C148.555488,32.0541017 147.623098,32.7037966 146.537037,33.1622373 C145.450034,33.620678 144.247542,33.8498983 142.92862,33.8498983 C141.352795,33.8498983 139.967879,33.5181695 138.771987,32.8537627 C137.576566,32.1903051 136.648418,31.2610847 135.989428,30.0665763 C135.329495,28.8725424 135,27.5014915 135,25.9538983 C135,24.4058305 135.329495,23.0328814 135.989428,21.8336271 C136.648418,20.6348475 137.576566,19.6961356 138.771987,19.0174915 C139.967879,18.339322 141.324512,18 142.842828,18 C145.291178,18 147.122492,18.6952542 148.337239,20.0852881 L148.337239,20.0852881 Z" id="Fill-9" fill="#364447"></path>
            <path d="M167.308956,19.6050169 C168.334209,20.6751864 168.846599,22.1468475 168.846599,24.0190508 L168.846599,33.7355254 L165.487071,33.7355254 L165.487071,24.9648814 C165.487071,23.7898305 165.157104,22.8629831 164.498114,22.1848136 C163.838182,21.5066441 162.925118,21.167322 161.75798,21.167322 C160.514478,21.1863051 159.499125,21.5877966 158.711448,22.3708475 C157.923771,23.1548475 157.473131,24.172339 157.359529,25.423322 L157.359529,33.7355254 L154,33.7355254 L154,18.1148475 L157.359529,18.1148475 L157.359529,21.1098983 C158.412593,19.0369492 160.315084,18 163.067475,18 C164.870034,18 166.284175,18.535322 167.308956,19.6050169" id="Fill-10" fill="#364447"></path>
            <path d="M177.533333,33.4614237 C176.270976,33.4614237 175.232054,33.0793898 174.416094,32.3148475 C173.600135,31.5507797 173.191919,30.4184407 173.191919,28.9183051 L173.191919,20.8215593 L171,20.8215593 L171,18.2849492 L173.191919,18.2849492 L173.191919,14 L176.522694,14 L176.522694,18.2849492 L181.091785,18.2849492 L181.091785,20.8215593 L176.522694,20.8215593 L176.522694,28.3023051 C176.522694,29.0858305 176.65798,29.6325424 176.928552,29.9429153 C177.199125,30.2537627 177.613939,30.4089492 178.173939,30.4089492 C178.800404,30.4089492 179.578182,30.1844746 180.508215,29.7350508 L181.362357,32.3148475 C180.071717,33.0793898 178.795219,33.4614237 177.533333,33.4614237" id="Fill-11" fill="#364447"></path>
            <path d="M185.298855,34.1271186 L188.62963,34.1271186 L188.62963,18.5064407 L185.298855,18.5064407 L185.298855,34.1271186 Z M188.359057,12.5732881 C188.729091,12.9557966 188.914343,13.4474576 188.914343,14.0496949 C188.914343,14.6324746 188.729091,15.1146441 188.359057,15.496678 C187.989024,15.8791864 187.519057,16.0699661 186.950101,16.0699661 C186.390101,16.0699661 185.924848,15.8815593 185.554815,15.5042712 C185.184781,15.1269831 185,14.6419661 185,14.0496949 C185,13.4474576 185.184781,12.9557966 185.554815,12.5732881 C185.924848,12.1912542 186.390101,12 186.950101,12 C187.519057,12 187.989024,12.1912542 188.359057,12.5732881 L188.359057,12.5732881 Z" id="Fill-12" fill="#364447"></path>
            <path d="M203.558249,29.6722034 C204.440673,28.7221017 204.881886,27.5014915 204.881886,26.0108475 C204.881886,24.5016949 204.440673,23.2692203 203.558249,22.3134237 C202.675825,21.3581017 201.532256,20.8802034 200.128013,20.8802034 C198.732727,20.8802034 197.591515,21.3604746 196.704377,22.3205424 C195.817239,23.2806102 195.363771,24.5111864 195.344916,26.0108475 C195.363771,27.5014915 195.817239,28.7221017 196.704377,29.6722034 C197.591515,30.6232542 198.732727,31.0983051 200.128013,31.0983051 C201.532256,31.0983051 202.675825,30.6232542 203.558249,29.6722034 Z M208.227273,39.4532203 L204.881886,39.4532203 L204.881886,31.0983051 C204.322357,32.015661 203.579461,32.7132881 202.654613,33.1907119 C201.729293,33.6681356 200.654545,33.907322 199.43037,33.907322 C197.949764,33.907322 196.652054,33.5703729 195.537239,32.8969492 C194.421953,32.2230508 193.55367,31.2800678 192.932391,30.0665763 C192.31064,28.8530847 192,27.4630508 192,25.896 C192,24.3484068 192.31064,22.9773559 192.932391,21.783322 C193.55367,20.5892881 194.421953,19.6600678 195.537239,18.9961356 C196.652054,18.3322034 197.930909,18 199.373333,18 C200.616364,18 201.698182,18.2463051 202.618788,18.7379661 C203.539394,19.2301017 204.293603,19.9348475 204.881886,20.8517288 L204.881886,18.143322 L208.227273,18.143322 L208.227273,39.4532203 L208.227273,39.4532203 Z" id="Fill-13" fill="#364447"></path>
        </g>
    </g>
</svg>